<svg width="200" height="200" viewBox="0 0 200 200" xmlns="http://www.w3.org/2000/svg">
  <!-- Orange figure with briefcase -->
  <g transform="translate(50, 40)">
    <!-- Head -->
    <circle cx="50" cy="30" r="20" fill="#FF6B35"/>
    
    <!-- Body -->
    <path d="M30 50 Q30 45 35 45 L65 45 Q70 45 70 50 L85 90 Q85 95 80 95 L20 95 Q15 95 15 90 Z" fill="#FF6B35"/>
    
    <!-- Arms -->
    <ellipse cx="20" cy="65" rx="12" ry="25" fill="#FF6B35" transform="rotate(-30 20 65)"/>
    <ellipse cx="80" cy="65" rx="12" ry="25" fill="#FF6B35" transform="rotate(30 80 65)"/>
    
    <!-- Legs -->
    <ellipse cx="35" cy="105" rx="12" ry="25" fill="#FF6B35" transform="rotate(-15 35 105)"/>
    <ellipse cx="65" cy="105" rx="12" ry="25" fill="#FF6B35" transform="rotate(15 65 105)"/>
    
    <!-- Briefcase -->
    <rect x="10" y="55" width="20" height="15" rx="2" fill="#FF6B35"/>
    <rect x="12" y="57" width="16" height="2" fill="white"/>
    <circle cx="15" cy="62" r="1" fill="white"/>
  </g>
  
  <!-- Bagami text -->
  <text x="100" y="160" font-family="Arial, sans-serif" font-size="32" font-weight="bold" fill="#2C3E50" text-anchor="middle">Bagami</text>
</svg>